<svg width="190" height="56" viewBox="0 0 190 56" fill="none" xmlns="http://www.w3.org/2000/svg">
<path d="M185.25 9H156.75C154.13 9 152 11.1304 152 13.75V42.25C152 44.8696 154.13 47 156.75 47H171V33.9375H166.25V28H171V23.25C171 19.3146 174.19 16.125 178.125 16.125H182.875V22.0625H180.5C179.189 22.0625 178.125 21.939 178.125 23.25V28H184.062L181.688 33.9375H178.125V47H185.25C187.87 47 190 44.8696 190 42.25V13.75C190 11.1304 187.87 9 185.25 9Z" fill="#2F7AB0" fill-opacity="0.76"/>
<path d="M123.62 12.46C122.101 9.758 120.453 9.261 117.096 9.072C113.743 8.8445 105.311 8.75 98.007 8.75C90.6885 8.75 82.2535 8.8445 78.904 9.0685C75.5545 9.261 73.9025 9.7545 72.3695 12.46C70.805 15.1585 70 19.8065 70 27.9895C70 27.9965 70 28 70 28C70 28.007 70 28.0105 70 28.0105V28.0175C70 36.1655 70.805 40.8485 72.3695 43.519C73.9025 46.221 75.551 46.711 78.9005 46.9385C82.2535 47.1345 90.6885 47.25 98.007 47.25C105.311 47.25 113.743 47.1345 117.099 46.942C120.456 46.7145 122.105 46.2245 123.624 43.5225C125.202 40.852 126 36.169 126 28.021C126 28.021 126 28.0105 126 28.0035C126 28.0035 126 27.9965 126 27.993C126 19.8065 125.202 15.1585 123.62 12.46ZM91 38.5V17.5L108.5 28L91 38.5Z" fill="#2F7AB0" fill-opacity="0.76"/>
<g clip-path="url(#clip0)">
<path d="M45 17.5472C43.3266 18.2813 41.5434 18.7678 39.6844 19.0041C41.5969 17.8622 43.0566 16.0678 43.7428 13.905C41.9597 14.9681 39.9909 15.7191 37.8928 16.1381C36.1997 14.3353 33.7866 13.2188 31.1541 13.2188C26.0466 13.2188 21.9347 17.3644 21.9347 22.4466C21.9347 23.1778 21.9966 23.8809 22.1484 24.5503C14.4788 24.1762 7.69219 20.5003 3.13312 14.9006C2.33719 16.2816 1.87031 17.8622 1.87031 19.5638C1.87031 22.7588 3.51562 25.5909 5.96812 27.2306C4.48594 27.2025 3.03187 26.7722 1.8 26.0944C1.8 26.1225 1.8 26.1591 1.8 26.1956C1.8 30.6787 4.99781 34.4025 9.19125 35.2603C8.44031 35.4656 7.62187 35.5641 6.7725 35.5641C6.18187 35.5641 5.58562 35.5303 5.02594 35.4066C6.22125 39.06 9.61313 41.7459 13.6463 41.8331C10.5075 44.2884 6.52219 45.7678 2.20781 45.7678C1.45125 45.7678 0.725625 45.7341 0 45.6412C4.08656 48.2766 8.92969 49.7812 14.1525 49.7812C31.1287 49.7812 40.41 35.7188 40.41 23.5294C40.41 23.1216 40.3959 22.7278 40.3762 22.3369C42.2072 21.0375 43.7456 19.4147 45 17.5472Z" fill="#2F7AB0" fill-opacity="0.76"/>
</g>
<defs>
<clipPath id="clip0">
<rect width="45" height="45" fill="white" transform="translate(0 9)"/>
</clipPath>
</defs>
</svg>
