<svg width="373" height="132" viewBox="0 0 373 132" fill="none" xmlns="http://www.w3.org/2000/svg">
<path d="M117.541 91.7053H110.027V91.0383H111.334V84.002L105.486 73.6977H103.787V73.0308H112.935V73.6977H111.334L115.908 82.1012L120.155 73.6977H117.541V73.0308H123.259V73.6977H120.972L116.234 83.1017V91.0383H117.541V91.7053ZM130.29 89.7044C130.769 90.816 131.597 91.3718 132.773 91.3718C133.949 91.3718 134.788 90.8049 135.289 89.6711C135.79 88.5373 136.04 86.6698 136.04 84.0687C136.04 81.4454 135.79 79.5668 135.289 78.433C134.788 77.277 133.949 76.699 132.773 76.699C131.597 76.699 130.769 77.277 130.29 78.433C129.811 79.5668 129.571 81.4454 129.571 84.0687C129.571 86.6921 129.811 88.5706 130.29 89.7044ZM132.708 92.0388C130.639 92.0388 128.766 91.3496 127.088 89.9712C125.411 88.5929 124.573 86.6365 124.573 84.1021C124.573 82.746 124.812 81.5343 125.291 80.4672C125.792 79.4001 126.446 78.5553 127.252 77.9328C128.079 77.3103 128.962 76.8435 129.898 76.5322C130.835 76.1988 131.793 76.032 132.773 76.032C133.753 76.032 134.712 76.1988 135.648 76.5322C136.607 76.8435 137.489 77.3103 138.295 77.9328C139.122 78.5553 139.787 79.4001 140.288 80.4672C140.788 81.5343 141.039 82.7348 141.039 84.0687C141.039 85.4026 140.788 86.592 140.288 87.6369C139.787 88.6818 139.122 89.5155 138.295 90.138C136.639 91.4052 134.777 92.0388 132.708 92.0388ZM149.875 91.0383H151.509V91.7053H143.341V91.0383H144.975V70.0295H143.341V69.3625H149.875V91.0383ZM159.196 89.7044C159.675 90.816 160.503 91.3718 161.679 91.3718C162.855 91.3718 163.694 90.8049 164.195 89.6711C164.696 88.5373 164.946 86.6698 164.946 84.0687C164.946 81.4454 164.696 79.5668 164.195 78.433C163.694 77.277 162.855 76.699 161.679 76.699C160.503 76.699 159.675 77.277 159.196 78.433C158.717 79.5668 158.477 81.4454 158.477 84.0687C158.477 86.6921 158.717 88.5706 159.196 89.7044ZM161.614 92.0388C159.545 92.0388 157.672 91.3496 155.994 89.9712C154.317 88.5929 153.479 86.6365 153.479 84.1021C153.479 82.746 153.718 81.5343 154.197 80.4672C154.698 79.4001 155.352 78.5553 156.158 77.9328C156.985 77.3103 157.868 76.8435 158.804 76.5322C159.741 76.1988 160.699 76.032 161.679 76.032C162.659 76.032 163.618 76.1988 164.554 76.5322C165.513 76.8435 166.395 77.3103 167.201 77.9328C168.028 78.5553 168.693 79.4001 169.194 80.4672C169.695 81.5343 169.945 82.7348 169.945 84.0687C169.945 85.4026 169.695 86.592 169.194 87.6369C168.693 88.6818 168.028 89.5155 167.201 90.138C165.545 91.4052 163.683 92.0388 161.614 92.0388Z" fill="#2F7AB0"/>
<path d="M117.541 91.7052V92.3999H118.222V91.7052H117.541ZM110.027 91.7052H109.346V92.3999H110.027V91.7052ZM110.027 91.0383V90.3435H109.346V91.0383H110.027ZM111.334 91.0383V91.733H112.014V91.0383H111.334ZM111.334 84.002H112.014V83.8152L111.923 83.6538L111.334 84.002ZM105.486 73.6976L106.074 73.3494L105.878 73.0029H105.486V73.6976ZM103.787 73.6976H103.106V74.3924H103.787V73.6976ZM103.787 73.0307V72.3359H103.106V73.0307H103.787ZM112.935 73.0307H113.615V72.3359H112.935V73.0307ZM112.935 73.6976V74.3924H113.615V73.6976H112.935ZM111.334 73.6976V73.0029H110.177L110.739 74.035L111.334 73.6976ZM115.908 82.1012L115.313 82.4385L115.93 83.5726L116.513 82.4196L115.908 82.1012ZM120.155 73.6976L120.76 74.0161L121.272 73.0029H120.155V73.6976ZM117.541 73.6976H116.861V74.3924H117.541V73.6976ZM117.541 73.0307V72.3359H116.861V73.0307H117.541ZM123.259 73.0307H123.94V72.3359H123.259V73.0307ZM123.259 73.6976V74.3924H123.94V73.6976H123.259ZM120.972 73.6976V73.0029H120.557L120.366 73.38L120.972 73.6976ZM116.234 83.1016L115.629 82.7839L115.554 82.9335V83.1016H116.234ZM116.234 91.0383H115.554V91.733H116.234V91.0383ZM117.541 91.0383H118.222V90.3435H117.541V91.0383ZM117.541 91.0105H110.027V92.3999H117.541V91.0105ZM110.708 91.7052V91.0383H109.346V91.7052H110.708ZM110.027 91.733H111.334V90.3435H110.027V91.733ZM112.014 91.0383V84.002H110.653V91.0383H112.014ZM111.923 83.6538L106.074 73.3494L104.897 74.0458L110.745 84.3502L111.923 83.6538ZM105.486 73.0029H103.787V74.3924H105.486V73.0029ZM104.467 73.6976V73.0307H103.106V73.6976H104.467ZM103.787 73.7254H112.935V72.3359H103.787V73.7254ZM112.254 73.0307V73.6976H113.615V73.0307H112.254ZM112.935 73.0029H111.334V74.3924H112.935V73.0029ZM110.739 74.035L115.313 82.4385L116.503 81.7638L111.929 73.3603L110.739 74.035ZM116.513 82.4196L120.76 74.0161L119.55 73.3792L115.303 81.7827L116.513 82.4196ZM120.155 73.0029H117.541V74.3924H120.155V73.0029ZM118.222 73.6976V73.0307H116.861V73.6976H118.222ZM117.541 73.7254H123.259V72.3359H117.541V73.7254ZM122.578 73.0307V73.6976H123.94V73.0307H122.578ZM123.259 73.0029H120.972V74.3924H123.259V73.0029ZM120.366 73.38L115.629 82.7839L116.84 83.4192L121.577 74.0153L120.366 73.38ZM115.554 83.1016V91.0383H116.915V83.1016H115.554ZM116.234 91.733H117.541V90.3435H116.234V91.733ZM116.861 91.0383V91.7052H118.222V91.0383H116.861ZM130.29 89.7044L129.665 89.9796L129.667 89.9842L130.29 89.7044ZM135.289 78.433L134.666 78.714L134.668 78.7186L135.289 78.433ZM130.29 78.433L130.915 78.7081L130.917 78.7036L130.29 78.433ZM125.291 80.4671L124.677 80.1669L124.673 80.1777L125.291 80.4671ZM127.252 77.9327L126.848 77.3733L126.841 77.3788L127.252 77.9327ZM129.898 76.5322L130.109 77.1928L130.122 77.1881L129.898 76.5322ZM135.648 76.5322L135.424 77.1884L135.442 77.1942L135.648 76.5322ZM138.295 77.9327L137.883 78.4867L137.89 78.492L138.295 77.9327ZM138.295 90.1379L137.89 89.5786L137.886 89.5821L138.295 90.1379ZM129.667 89.9842C129.949 90.6377 130.352 91.1701 130.896 91.5353C131.44 91.9008 132.077 92.0665 132.773 92.0665V90.677C132.293 90.677 131.928 90.5647 131.644 90.3745C131.36 90.1839 131.111 89.8826 130.913 89.4245L129.667 89.9842ZM132.773 92.0665C133.472 92.0665 134.112 91.8967 134.66 91.5258C135.207 91.156 135.617 90.6175 135.909 89.9567L134.668 89.3853C134.459 89.8583 134.2 90.1703 133.908 90.3673C133.618 90.5633 133.251 90.677 132.773 90.677V92.0665ZM135.909 89.9567C136.473 88.6792 136.721 86.6839 136.721 84.0687H135.36C135.36 86.6556 135.106 88.3952 134.668 89.3853L135.909 89.9567ZM136.721 84.0687C136.721 81.4323 136.474 79.4252 135.909 78.1473L134.668 78.7186C135.106 79.7083 135.36 81.4584 135.36 84.0687H136.721ZM135.911 78.1519C135.621 77.4813 135.212 76.9336 134.665 76.5566C134.116 76.1781 133.474 76.0042 132.773 76.0042V77.3936C133.248 77.3936 133.614 77.5087 133.903 77.7082C134.195 77.9093 134.456 78.2286 134.666 78.714L135.911 78.1519ZM132.773 76.0042C132.072 76.0042 131.431 76.178 130.886 76.559C130.342 76.9386 129.942 77.4895 129.663 78.1623L130.917 78.7036C131.117 78.2204 131.37 77.9043 131.655 77.7058C131.937 77.5088 132.298 77.3936 132.773 77.3936V76.0042ZM129.665 78.1578C129.127 79.4313 128.891 81.4334 128.891 84.0687H130.252C130.252 81.4573 130.495 79.7022 130.915 78.7081L129.665 78.1578ZM128.891 84.0687C128.891 86.7039 129.127 88.7062 129.665 89.9796L130.915 89.4292C130.495 88.4351 130.252 86.68 130.252 84.0687H128.891ZM132.708 91.3439C130.801 91.3439 129.077 90.7134 127.515 89.4301L126.661 90.5122C128.454 91.9856 130.477 92.7334 132.708 92.7334V91.3439ZM127.515 89.4301C126.024 88.2047 125.253 86.4623 125.253 84.102H123.892C123.892 86.8105 124.798 88.9809 126.661 90.5122L127.515 89.4301ZM125.253 84.102C125.253 82.8304 125.478 81.7199 125.91 80.7566L124.673 80.1777C124.147 81.3486 123.892 82.6614 123.892 84.102H125.253ZM125.905 80.7674C126.366 79.7853 126.955 79.0331 127.662 78.4867L126.841 77.3788C125.937 78.0774 125.218 79.0147 124.677 80.1669L125.905 80.7674ZM127.655 78.492C128.427 77.9118 129.244 77.4802 130.109 77.1928L129.687 75.8716C128.679 76.2067 127.731 76.7086 126.848 77.3733L127.655 78.492ZM130.122 77.1881C130.988 76.8799 131.87 76.7267 132.773 76.7267V75.3372C131.716 75.3372 130.682 75.5174 129.674 75.8762L130.122 77.1881ZM132.773 76.7267C133.676 76.7267 134.559 76.8802 135.424 77.1884L135.872 75.8762C134.865 75.5174 133.831 75.3372 132.773 75.3372V76.7267ZM135.442 77.1942C136.326 77.4814 137.139 77.9116 137.883 78.4867L138.706 77.3788C137.839 76.7089 136.887 76.2053 135.855 75.8701L135.442 77.1942ZM137.89 78.492C138.619 79.0388 139.215 79.7896 139.674 80.7674L140.901 80.1669C140.358 79.0104 139.627 78.0717 138.699 77.3735L137.89 78.492ZM139.674 80.7674C140.126 81.7295 140.358 82.8254 140.358 84.0687H141.72C141.72 82.6442 141.451 81.339 140.901 80.1669L139.674 80.7674ZM140.358 84.0687C140.358 85.3122 140.126 86.3946 139.676 87.3314L140.899 87.9422C141.451 86.7892 141.72 85.4929 141.72 84.0687H140.358ZM139.676 87.3314C139.218 88.287 138.621 89.0294 137.89 89.5786L138.699 90.6971C139.623 90.0014 140.356 89.0765 140.899 87.9422L139.676 87.3314ZM137.886 89.5821C136.349 90.7591 134.63 91.3439 132.708 91.3439V92.7334C134.924 92.7334 136.931 92.0511 138.703 90.6937L137.886 89.5821ZM149.875 91.0383H149.195V91.733H149.875V91.0383ZM151.509 91.0383H152.189V90.3435H151.509V91.0383ZM151.509 91.7052V92.3999H152.189V91.7052H151.509ZM143.341 91.7052H142.66V92.3999H143.341V91.7052ZM143.341 91.0383V90.3435H142.66V91.0383H143.341ZM144.975 91.0383V91.733H145.655V91.0383H144.975ZM144.975 70.0294H145.655V69.3347H144.975V70.0294ZM143.341 70.0294H142.66V70.7242H143.341V70.0294ZM143.341 69.3625V68.6677H142.66V69.3625H143.341ZM149.875 69.3625H150.556V68.6677H149.875V69.3625ZM149.875 91.733H151.509V90.3435H149.875V91.733ZM150.828 91.0383V91.7052H152.189V91.0383H150.828ZM151.509 91.0105H143.341V92.3999H151.509V91.0105ZM144.022 91.7052V91.0383H142.66V91.7052H144.022ZM143.341 91.733H144.975V90.3435H143.341V91.733ZM145.655 91.0383V70.0294H144.294V91.0383H145.655ZM144.975 69.3347H143.341V70.7242H144.975V69.3347ZM144.022 70.0294V69.3625H142.66V70.0294H144.022ZM143.341 70.0572H149.875V68.6677H143.341V70.0572ZM149.195 69.3625V91.0383H150.556V69.3625H149.195ZM159.196 89.7044L158.571 89.9796L158.574 89.9842L159.196 89.7044ZM164.195 78.433L163.573 78.714L163.576 78.7186L164.195 78.433ZM159.196 78.433L159.822 78.7081L159.824 78.7036L159.196 78.433ZM154.197 80.4671L153.583 80.1669L153.579 80.1777L154.197 80.4671ZM156.158 77.9327L155.755 77.3733L155.748 77.3788L156.158 77.9327ZM158.804 76.5322L159.015 77.1928L159.029 77.1881L158.804 76.5322ZM164.554 76.5322L164.331 77.1884L164.349 77.1942L164.554 76.5322ZM167.201 77.9327L166.791 78.4867L166.798 78.492L167.201 77.9327ZM167.201 90.1379L166.798 89.5786L166.792 89.5821L167.201 90.1379ZM158.574 89.9842C158.856 90.6377 159.259 91.1701 159.803 91.5353C160.346 91.9008 160.984 92.0665 161.679 92.0665V90.677C161.2 90.677 160.834 90.5647 160.551 90.3745C160.268 90.1839 160.017 89.8826 159.82 89.4245L158.574 89.9842ZM161.679 92.0665C162.379 92.0665 163.019 91.8967 163.567 91.5258C164.113 91.156 164.524 90.6175 164.816 89.9567L163.576 89.3853C163.366 89.8583 163.107 90.1703 162.815 90.3673C162.525 90.5633 162.157 90.677 161.679 90.677V92.0665ZM164.816 89.9567C165.381 88.6792 165.627 86.6839 165.627 84.0687H164.266C164.266 86.6556 164.012 88.3952 163.576 89.3853L164.816 89.9567ZM165.627 84.0687C165.627 81.4323 165.381 79.4252 164.816 78.1473L163.576 78.7186C164.012 79.7083 164.266 81.4584 164.266 84.0687H165.627ZM164.818 78.1519C164.527 77.4813 164.119 76.9336 163.571 76.5566C163.023 76.1781 162.382 76.0042 161.679 76.0042V77.3936C162.154 77.3936 162.52 77.5087 162.81 77.7082C163.102 77.9093 163.363 78.2286 163.573 78.714L164.818 78.1519ZM161.679 76.0042C160.979 76.0042 160.338 76.178 159.792 76.559C159.249 76.9386 158.849 77.4895 158.57 78.1623L159.824 78.7036C160.024 78.2204 160.277 77.9043 160.562 77.7058C160.843 77.5088 161.204 77.3936 161.679 77.3936V76.0042ZM158.571 78.1578C158.034 79.4313 157.797 81.4334 157.797 84.0687H159.158C159.158 81.4573 159.402 79.7022 159.822 78.7081L158.571 78.1578ZM157.797 84.0687C157.797 86.7039 158.034 88.7062 158.571 89.9796L159.822 89.4292C159.402 88.4351 159.158 86.68 159.158 84.0687H157.797ZM161.614 91.3439C159.707 91.3439 157.983 90.7134 156.422 89.4301L155.568 90.5122C157.361 91.9856 159.383 92.7334 161.614 92.7334V91.3439ZM156.422 89.4301C154.931 88.2047 154.159 86.4623 154.159 84.102H152.798C152.798 86.8105 153.705 88.9809 155.568 90.5122L156.422 89.4301ZM154.159 84.102C154.159 82.8304 154.384 81.7199 154.817 80.7566L153.579 80.1777C153.054 81.3486 152.798 82.6614 152.798 84.102H154.159ZM154.811 80.7674C155.273 79.7853 155.862 79.0331 156.569 78.4867L155.748 77.3788C154.843 78.0774 154.125 79.0147 153.585 80.1669L154.811 80.7674ZM156.562 78.492C157.334 77.9118 158.151 77.4802 159.015 77.1928L158.594 75.8716C157.586 76.2067 156.638 76.7086 155.755 77.3733L156.562 78.492ZM159.029 77.1881C159.895 76.8799 160.777 76.7267 161.679 76.7267V75.3372C160.623 75.3372 159.588 75.5174 158.581 75.8762L159.029 77.1881ZM161.679 76.7267C162.583 76.7267 163.465 76.8802 164.331 77.1884L164.779 75.8762C163.772 75.5174 162.737 75.3372 161.679 75.3372V76.7267ZM164.349 77.1942C165.232 77.4814 166.046 77.9116 166.791 78.4867L167.612 77.3788C166.745 76.7089 165.793 76.2053 164.761 75.8701L164.349 77.1942ZM166.798 78.492C167.525 79.0388 168.121 79.7896 168.581 80.7674L169.808 80.1669C169.266 79.0104 168.533 78.0717 167.605 77.3735L166.798 78.492ZM168.581 80.7674C169.032 81.7295 169.264 82.8254 169.264 84.0687H170.626C170.626 82.6442 170.359 81.339 169.808 80.1669L168.581 80.7674ZM169.264 84.0687C169.264 85.3122 169.032 86.3946 168.582 87.3314L169.806 87.9422C170.359 86.7892 170.626 85.4929 170.626 84.0687H169.264ZM168.582 87.3314C168.125 88.287 167.527 89.0294 166.798 89.5786L167.605 90.6971C168.531 90.0014 169.262 89.0765 169.806 87.9422L168.582 87.3314ZM166.792 89.5821C165.255 90.7591 163.536 91.3439 161.614 91.3439V92.7334C163.831 92.7334 165.837 92.0511 167.609 90.6937L166.792 89.5821Z" fill="#2F7AB0"/>
<path d="M192.163 91.0383C195.43 91.0383 197.064 89.1487 197.064 85.3693H197.717V91.7053H182.362V91.0383H183.995V73.6977H182.362V73.0308H197.39V78.6998H196.737C196.737 76.7212 196.345 75.3984 195.561 74.7315C194.799 74.0423 193.557 73.6977 191.836 73.6977H188.896V81.7011H190.203C191.771 81.7011 192.762 81.501 193.176 81.1008C193.59 80.7007 193.797 79.9003 193.797 78.6998H194.45V85.3693H193.797C193.797 84.1243 193.59 83.3129 193.176 82.9349C192.762 82.557 191.771 82.368 190.203 82.368H188.896V91.0383H192.163ZM204.804 91.7053H199.283V91.0383H201.243L205.85 84.8024L200.165 77.0324H198.858V76.3655H207.451V77.0324H205.817L209.542 82.1346L213.527 77.0324H210.914V76.3655H216.403V77.0324H214.442L209.934 82.7015L216.043 91.0383H217.35V91.7053H208.79V91.0383H210.424L206.307 85.436L202.158 91.0383H204.804V91.7053ZM224.87 83.6686V89.1709C225.458 90.3714 226.22 90.9716 227.157 90.9716C228.115 90.9716 228.932 90.4159 229.607 89.3043C230.283 88.1927 230.62 86.4142 230.62 83.9687C230.62 81.501 230.359 79.778 229.836 78.7999C229.313 77.7994 228.518 77.2992 227.451 77.2992C226.384 77.2992 225.687 77.7439 225.36 78.6331C225.033 79.5224 224.87 81.2009 224.87 83.6686ZM224.87 77.8995C225.611 76.61 226.939 75.9653 228.856 75.9653C230.773 75.9653 232.374 76.6767 233.659 78.0996C234.944 79.5224 235.586 81.5343 235.586 84.1354C235.586 86.7365 234.955 88.7707 233.691 90.238C232.428 91.7053 230.892 92.4389 229.085 92.4389C228.192 92.4389 227.353 92.25 226.569 91.872C225.785 91.4941 225.218 90.9272 224.87 90.1713V98.0413H226.504V98.7082H219.969V77.0324H218.336V76.3655H224.87V77.8995ZM244.412 91.0383H246.045V91.7053H237.877V91.0383H239.511V70.0295H237.877V69.3625H244.412V91.0383ZM253.734 89.7044C254.213 90.816 255.041 91.3718 256.217 91.3718C257.393 91.3718 258.232 90.8049 258.733 89.6711C259.234 88.5373 259.484 86.6698 259.484 84.0687C259.484 81.4454 259.234 79.5668 258.733 78.433C258.232 77.277 257.393 76.699 256.217 76.699C255.041 76.699 254.213 77.277 253.734 78.433C253.255 79.5668 253.015 81.4454 253.015 84.0687C253.015 86.6921 253.255 88.5706 253.734 89.7044ZM256.152 92.0388C254.082 92.0388 252.209 91.3496 250.532 89.9712C248.855 88.5929 248.016 86.6365 248.016 84.1021C248.016 82.746 248.256 81.5343 248.735 80.4672C249.236 79.4001 249.89 78.5553 250.695 77.9328C251.523 77.3103 252.405 76.8435 253.342 76.5322C254.278 76.1988 255.237 76.032 256.217 76.032C257.197 76.032 258.155 76.1988 259.092 76.5322C260.05 76.8435 260.933 77.3103 261.738 77.9328C262.566 78.5553 263.23 79.4001 263.731 80.4672C264.232 81.5343 264.483 82.7348 264.483 84.0687C264.483 85.4026 264.232 86.592 263.731 87.6369C263.23 88.6818 262.566 89.5155 261.738 90.138C260.083 91.4052 258.221 92.0388 256.152 92.0388ZM274.953 91.7053H266.785V91.0383H268.418V77.0324H266.785V76.3655H273.319V80.3338C273.515 79.2445 273.864 78.3552 274.365 77.666C274.887 76.9769 275.454 76.5211 276.064 76.2988C276.695 76.0765 277.294 75.9653 277.86 75.9653C278.449 75.9653 279.004 76.0765 279.527 76.2988C280.071 76.4989 280.474 76.9213 280.736 77.566C280.997 78.1885 281.008 78.8221 280.768 79.4668C280.529 80.0893 280.104 80.5339 279.494 80.8007C278.906 81.0675 278.361 81.1008 277.86 80.9007C277.36 80.7007 277 80.4339 276.782 80.1004C276.565 79.7447 276.412 79.4112 276.325 79.1C276.107 78.2774 275.813 77.8661 275.443 77.8661C275.029 77.8661 274.572 78.5998 274.071 80.0671C273.57 81.5121 273.319 83.0461 273.319 84.669V91.0383H274.953V91.7053ZM297.018 85.0358H287.151C287.369 88.9486 288.861 90.905 291.627 90.905C292.368 90.905 293.207 90.7271 294.143 90.3714C295.102 90.0157 295.799 89.5155 296.234 88.8708L296.692 89.2042C296.212 90.0268 295.396 90.7049 294.241 91.2384C293.087 91.772 291.932 92.0388 290.778 92.0388C289.645 92.0388 288.622 91.9276 287.707 91.7053C286.792 91.4607 285.899 91.0606 285.028 90.5048C284.157 89.949 283.47 89.1153 282.969 88.0037C282.49 86.8921 282.251 85.5471 282.251 83.9687C282.251 81.2787 282.98 79.289 284.44 77.9995C285.899 76.6879 287.663 76.032 289.732 76.032C291.823 76.032 293.555 76.7434 294.927 78.1663C296.321 79.5891 297.018 81.8789 297.018 85.0358ZM287.119 84.3689H292.444C292.444 82.3236 292.226 80.5339 291.791 78.9999C291.377 77.466 290.702 76.699 289.765 76.699C288.829 76.699 288.153 77.4437 287.74 78.9332C287.326 80.4005 287.119 82.0901 287.119 84.002V84.3689ZM307.56 91.7053H299.392V91.0383H301.026V77.0324H299.392V76.3655H305.927V80.3338C306.123 79.2445 306.471 78.3552 306.972 77.666C307.495 76.9769 308.061 76.5211 308.671 76.2988C309.303 76.0765 309.902 75.9653 310.468 75.9653C311.056 75.9653 311.612 76.0765 312.134 76.2988C312.679 76.4989 313.082 76.9213 313.343 77.566C313.605 78.1885 313.615 78.8221 313.376 79.4668C313.136 80.0893 312.711 80.5339 312.102 80.8007C311.514 81.0675 310.969 81.1008 310.468 80.9007C309.967 80.7007 309.608 80.4339 309.39 80.1004C309.172 79.7447 309.02 79.4112 308.932 79.1C308.715 78.2774 308.421 77.8661 308.05 77.8661C307.637 77.8661 307.179 78.5998 306.678 80.0671C306.177 81.5121 305.927 83.0461 305.927 84.669V91.0383H307.56V91.7053ZM322.536 91.4385C324.801 91.4385 325.934 90.8049 325.934 89.5377C325.934 88.8263 325.542 88.2483 324.758 87.8036C323.974 87.3368 323.026 86.9588 321.915 86.6698C320.804 86.3808 319.705 86.0473 318.616 85.6694C317.548 85.2915 316.655 84.6912 315.936 83.8687C315.239 83.0461 314.956 81.9679 315.087 80.634C315.218 79.3001 315.882 78.1996 317.08 77.3326C318.3 76.4655 319.792 76.032 321.556 76.032C323.342 76.032 324.78 76.321 325.869 76.8991C326.958 77.4771 327.568 78.2552 327.698 79.2334C327.785 79.8336 327.687 80.3894 327.404 80.9007C327.143 81.4121 326.696 81.6788 326.065 81.7011C325.455 81.7233 324.943 81.5566 324.529 81.2009C324.137 80.8452 323.952 80.4339 323.974 79.967C323.995 79.5001 324.17 79.0889 324.496 78.7332C324.823 78.3552 324.986 78.0551 324.986 77.8328C324.986 77.4548 324.627 77.177 323.908 76.9991C323.211 76.799 322.395 76.699 321.458 76.699C320.543 76.699 319.792 76.9102 319.204 77.3326C318.615 77.755 318.321 78.2774 318.321 78.8999C318.321 79.5224 318.681 80.0559 319.4 80.5006C320.14 80.9452 321.033 81.312 322.079 81.601C323.124 81.8678 324.159 82.1791 325.182 82.5348C326.228 82.8682 327.11 83.4129 327.829 84.1688C328.569 84.9247 328.94 85.8806 328.94 87.0367C328.94 88.5706 328.406 89.8045 327.339 90.7382C326.272 91.6497 324.66 92.1055 322.503 92.1055C320.347 92.1055 318.594 91.772 317.243 91.105C315.915 90.4381 315.185 89.5822 315.054 88.5373C314.967 87.937 315.065 87.3812 315.348 86.8699C315.631 86.3586 316.078 86.0918 316.688 86.0696C317.298 86.0474 317.799 86.2141 318.191 86.5698C318.605 86.9255 318.801 87.3368 318.779 87.8036C318.757 88.2705 318.583 88.6929 318.256 89.0708C317.929 89.4265 317.766 89.7156 317.766 89.9379C317.766 90.3825 318.267 90.7493 319.269 91.0383C320.293 91.3051 321.382 91.4385 322.536 91.4385Z" fill="#2F7AB0"/>
<path d="M197.064 85.3692V84.6745H196.383V85.3692H197.064ZM197.717 85.3692H198.398V84.6745H197.717V85.3692ZM197.717 91.7052V92.3999H198.398V91.7052H197.717ZM182.362 91.7052H181.681V92.3999H182.362V91.7052ZM182.362 91.0382V90.3435H181.681V91.0382H182.362ZM183.995 91.0382V91.733H184.676V91.0382H183.995ZM183.995 73.6976H184.676V73.0029H183.995V73.6976ZM182.362 73.6976H181.681V74.3924H182.362V73.6976ZM182.362 73.0307V72.3359H181.681V73.0307H182.362ZM197.39 73.0307H198.071V72.3359H197.39V73.0307ZM197.39 78.6997V79.3945H198.071V78.6997H197.39ZM196.737 78.6997H196.056V79.3945H196.737V78.6997ZM195.561 74.7314L195.109 75.2515L195.117 75.2584L195.125 75.2651L195.561 74.7314ZM188.896 73.6976V73.0029H188.215V73.6976H188.896ZM188.896 81.701H188.215V82.3957H188.896V81.701ZM193.797 78.6997V78.005H193.116V78.6997H193.797ZM194.45 78.6997H195.131V78.005H194.45V78.6997ZM194.45 85.3692V86.0639H195.131V85.3692H194.45ZM193.797 85.3692H193.116V86.0639H193.797V85.3692ZM193.176 82.9348L193.629 82.4171L193.176 82.9348ZM188.896 82.3679V81.6732H188.215V82.3679H188.896ZM188.896 91.0382H188.215V91.733H188.896V91.0382ZM192.163 91.733C193.925 91.733 195.365 91.2194 196.349 90.0806C197.32 88.9585 197.744 87.346 197.744 85.3692H196.383C196.383 87.1718 195.991 88.3938 195.328 89.1613C194.679 89.9122 193.669 90.3435 192.163 90.3435V91.733ZM197.064 86.0639H197.717V84.6745H197.064V86.0639ZM197.037 85.3692V91.7052H198.398V85.3692H197.037ZM197.717 91.0105H182.362V92.3999H197.717V91.0105ZM183.042 91.7052V91.0382H181.681V91.7052H183.042ZM182.362 91.733H183.995V90.3435H182.362V91.733ZM184.676 91.0382V73.6976H183.314V91.0382H184.676ZM183.995 73.0029H182.362V74.3924H183.995V73.0029ZM183.042 73.6976V73.0307H181.681V73.6976H183.042ZM182.362 73.7254H197.39V72.3359H182.362V73.7254ZM196.71 73.0307V78.6997H198.071V73.0307H196.71ZM197.39 78.005H196.737V79.3945H197.39V78.005ZM197.418 78.6997C197.418 76.6847 197.03 75.0763 195.996 74.1977L195.125 75.2651C195.66 75.7204 196.056 76.7575 196.056 78.6997H197.418ZM196.013 74.2113C195.064 73.3541 193.617 73.0029 191.836 73.0029V74.3924C193.497 74.3924 194.533 74.7303 195.109 75.2515L196.013 74.2113ZM191.836 73.0029H188.896V74.3924H191.836V73.0029ZM188.215 73.6976V81.701H189.577V73.6976H188.215ZM188.896 82.3957H190.203V81.0063H188.896V82.3957ZM190.203 82.3957C191.01 82.3957 191.699 82.3447 192.254 82.2325C192.791 82.1241 193.296 81.9412 193.644 81.6051L192.708 80.5964C192.642 80.6604 192.445 80.7777 191.99 80.8694C191.555 80.9572 190.964 81.0063 190.203 81.0063V82.3957ZM193.644 81.6051C193.974 81.2861 194.176 80.8526 194.299 80.3777C194.423 79.9001 194.477 79.3355 194.477 78.6997H193.116C193.116 79.2644 193.067 79.7003 192.984 80.0231C192.899 80.3485 192.792 80.5152 192.708 80.5964L193.644 81.6051ZM193.797 79.3945H194.45V78.005H193.797V79.3945ZM193.769 78.6997V85.3692H195.131V78.6997H193.769ZM194.45 84.6745H193.797V86.0639H194.45V84.6745ZM194.477 85.3692C194.477 84.7132 194.423 84.1351 194.3 83.652C194.178 83.1737 193.974 82.7311 193.629 82.4171L192.723 83.4526C192.792 83.5165 192.898 83.6686 192.983 84.0018C193.067 84.3301 193.116 84.7802 193.116 85.3692H194.477ZM193.629 82.4171C193.282 82.0991 192.78 81.9282 192.247 81.8267C191.695 81.7213 191.009 81.6732 190.203 81.6732V83.0627C190.965 83.0627 191.559 83.1091 191.997 83.1926C192.456 83.28 192.656 83.3927 192.723 83.4526L193.629 82.4171ZM190.203 81.6732H188.896V83.0627H190.203V81.6732ZM188.215 82.3679V91.0382H189.577V82.3679H188.215ZM188.896 91.733H192.163V90.3435H188.896V91.733ZM204.804 91.7052V92.3999H205.485V91.7052H204.804ZM199.283 91.7052H198.602V92.3999H199.283V91.7052ZM199.283 91.0382V90.3435H198.602V91.0382H199.283ZM201.243 91.0382V91.733H201.582L201.786 91.4565L201.243 91.0382ZM205.85 84.8023L206.393 85.2205L206.7 84.8042L206.396 84.3866L205.85 84.8023ZM200.165 77.0324L200.711 76.6166L200.507 76.3376H200.165V77.0324ZM198.858 77.0324H198.177V77.7271H198.858V77.0324ZM198.858 76.3654V75.6707H198.177V76.3654H198.858ZM207.451 76.3654H208.131V75.6707H207.451V76.3654ZM207.451 77.0324V77.7271H208.131V77.0324H207.451ZM205.817 77.0324V76.3376H204.461L205.271 77.4474L205.817 77.0324ZM209.542 82.1345L208.996 82.5495L209.524 83.2722L210.074 82.5676L209.542 82.1345ZM213.527 77.0324L214.06 77.4655L214.941 76.3376H213.527V77.0324ZM210.914 77.0324H210.233V77.7271H210.914V77.0324ZM210.914 76.3654V75.6707H210.233V76.3654H210.914ZM216.403 76.3654H217.083V75.6707H216.403V76.3654ZM216.403 77.0324V77.7271H217.083V77.0324H216.403ZM214.442 77.0324V76.3376H214.118L213.914 76.5945L214.442 77.0324ZM209.934 82.7014L209.405 82.2636L209.071 82.6839L209.389 83.1176L209.934 82.7014ZM216.043 91.0382L215.499 91.4544L215.703 91.733H216.043V91.0382ZM217.35 91.0382H218.031V90.3435H217.35V91.0382ZM217.35 91.7052V92.3999H218.031V91.7052H217.35ZM208.79 91.7052H208.109V92.3999H208.79V91.7052ZM208.79 91.0382V90.3435H208.109V91.0382H208.79ZM210.424 91.0382V91.733H211.785L210.968 90.6214L210.424 91.0382ZM206.307 85.4359L206.852 85.0191L206.31 84.281L205.764 85.017L206.307 85.4359ZM202.158 91.0382L201.615 90.6193L200.79 91.733H202.158V91.0382ZM204.804 91.0382H205.485V90.3435H204.804V91.0382ZM204.804 91.0105H199.283V92.3999H204.804V91.0105ZM199.963 91.7052V91.0382H198.602V91.7052H199.963ZM199.283 91.733H201.243V90.3435H199.283V91.733ZM201.786 91.4565L206.393 85.2205L205.307 84.3841L200.7 90.62L201.786 91.4565ZM206.396 84.3866L200.711 76.6166L199.62 77.4481L205.305 85.218L206.396 84.3866ZM200.165 76.3376H198.858V77.7271H200.165V76.3376ZM199.539 77.0324V76.3654H198.177V77.0324H199.539ZM198.858 77.0601H207.451V75.6707H198.858V77.0601ZM206.77 76.3654V77.0324H208.131V76.3654H206.77ZM207.451 76.3376H205.817V77.7271H207.451V76.3376ZM205.271 77.4474L208.996 82.5495L210.087 81.7195L206.363 76.6173L205.271 77.4474ZM210.074 82.5676L214.06 77.4655L212.995 76.5993L209.009 81.7014L210.074 82.5676ZM213.527 76.3376H210.914V77.7271H213.527V76.3376ZM211.594 77.0324V76.3654H210.233V77.0324H211.594ZM210.914 77.0601H216.403V75.6707H210.914V77.0601ZM215.722 76.3654V77.0324H217.083V76.3654H215.722ZM216.403 76.3376H214.442V77.7271H216.403V76.3376ZM213.914 76.5945L209.405 82.2636L210.462 83.1392L214.97 77.4702L213.914 76.5945ZM209.389 83.1176L215.499 91.4544L216.589 90.6221L210.48 82.2853L209.389 83.1176ZM216.043 91.733H217.35V90.3435H216.043V91.733ZM216.669 91.0382V91.7052H218.031V91.0382H216.669ZM217.35 91.0105H208.79V92.3999H217.35V91.0105ZM209.471 91.7052V91.0382H208.109V91.7052H209.471ZM208.79 91.733H210.424V90.3435H208.79V91.733ZM210.968 90.6214L206.852 85.0191L205.763 85.8527L209.879 91.4551L210.968 90.6214ZM205.764 85.017L201.615 90.6193L202.701 91.4572L206.85 85.8548L205.764 85.017ZM202.158 91.733H204.804V90.3435H202.158V91.733ZM204.124 91.0382V91.7052H205.485V91.0382H204.124ZM224.87 89.1708H224.189V89.3348L224.261 89.4815L224.87 89.1708ZM229.607 89.3042L229.029 88.9381L229.607 89.3042ZM229.836 78.7998L229.236 79.1267L229.238 79.1324L229.836 78.7998ZM225.36 78.633L225.997 78.877L225.36 78.633ZM224.87 77.8994H224.189V80.4582L225.458 78.2508L224.87 77.8994ZM233.691 90.2379L233.181 89.7793L233.691 90.2379ZM226.569 91.8719L226.279 92.5001L226.569 91.8719ZM224.87 90.1712L225.487 89.8754L224.189 90.1712H224.87ZM224.87 98.0412H224.189V98.7359H224.87V98.0412ZM226.504 98.0412H227.184V97.3465H226.504V98.0412ZM226.504 98.7081V99.4029H227.184V98.7081H226.504ZM219.969 98.7081H219.289V99.4029H219.969V98.7081ZM219.969 77.0324H220.65V76.3376H219.969V77.0324ZM218.336 77.0324H217.655V77.7271H218.336V77.0324ZM218.336 76.3654V75.6707H217.655V76.3654H218.336ZM224.87 76.3654H225.551V75.6707H224.87V76.3654ZM224.189 83.6685V89.1708H225.551V83.6685H224.189ZM224.261 89.4815C224.911 90.8083 225.862 91.6663 227.157 91.6663V90.2768C226.58 90.2768 226.005 89.9343 225.478 88.8601L224.261 89.4815ZM227.157 91.6663C228.428 91.6663 229.434 90.9089 230.186 89.6703L229.029 88.9381C228.431 89.9226 227.804 90.2768 227.157 90.2768V91.6663ZM230.186 89.6703C230.965 88.3889 231.301 86.4481 231.301 83.9686H229.939C229.939 86.38 229.602 87.9963 229.029 88.9381L230.186 89.6703ZM231.301 83.9686C231.301 81.4937 231.046 79.6126 230.434 78.4671L229.238 79.1324C229.673 79.9433 229.939 81.5081 229.939 83.9686H231.301ZM230.436 78.4728C230.13 77.8847 229.723 77.4089 229.206 77.0829C228.686 76.756 228.092 76.6044 227.451 76.6044V77.9939C227.877 77.9939 228.216 78.0924 228.491 78.2657C228.767 78.4399 229.021 78.7145 229.236 79.1267L230.436 78.4728ZM227.451 76.6044C226.828 76.6044 226.252 76.7343 225.767 77.0435C225.276 77.3572 224.931 77.8213 224.723 78.389L225.997 78.877C226.116 78.5555 226.284 78.3526 226.489 78.2218C226.701 78.0863 227.007 77.9939 227.451 77.9939V76.6044ZM224.723 78.389C224.347 79.4114 224.189 81.2098 224.189 83.6685H225.551C225.551 81.1917 225.719 79.6332 225.997 78.877L224.723 78.389ZM225.458 78.2508C226.038 77.2397 227.096 76.66 228.856 76.66V75.2705C226.783 75.2705 225.183 75.9802 224.283 77.548L225.458 78.2508ZM228.856 76.66C230.585 76.66 232.003 77.2921 233.159 78.5704L234.16 77.6286C232.744 76.0613 230.96 75.2705 228.856 75.2705V76.66ZM233.159 78.5704C234.293 79.8262 234.906 81.6476 234.906 84.1353H236.267C236.267 81.4209 235.596 79.2184 234.16 77.6286L233.159 78.5704ZM234.906 84.1353C234.906 86.6244 234.302 88.4758 233.181 89.7793L234.203 90.6966C235.607 89.0655 236.267 86.8484 236.267 84.1353H234.906ZM233.181 89.7793C232.037 91.1065 230.684 91.7441 229.085 91.7441V93.1336C231.101 93.1336 232.819 92.3039 234.203 90.6966L233.181 89.7793ZM229.085 91.7441C228.29 91.7441 227.55 91.5765 226.86 91.2438L226.279 92.5001C227.157 92.9232 228.095 93.1336 229.085 93.1336V91.7441ZM226.86 91.2438C226.209 90.9303 225.763 90.4762 225.487 89.8754L224.255 90.467C224.674 91.378 225.36 92.0577 226.279 92.5001L226.86 91.2438ZM224.189 90.1712V98.0412H225.551V90.1712H224.189ZM224.87 98.7359H226.504V97.3465H224.87V98.7359ZM225.823 98.0412V98.7081H227.184V98.0412H225.823ZM226.504 98.0134H219.969V99.4029H226.504V98.0134ZM220.65 98.7081V77.0324H219.289V98.7081H220.65ZM219.969 76.3376H218.336V77.7271H219.969V76.3376ZM219.016 77.0324V76.3654H217.655V77.0324H219.016ZM218.336 77.0601H224.87V75.6707H218.336V77.0601ZM224.189 76.3654V77.8994H225.551V76.3654H224.189ZM244.412 91.0382H243.731V91.733H244.412V91.0382ZM246.045 91.0382H246.726V90.3435H246.045V91.0382ZM246.045 91.7052V92.3999H246.726V91.7052H246.045ZM237.877 91.7052H237.197V92.3999H237.877V91.7052ZM237.877 91.0382V90.3435H237.197V91.0382H237.877ZM239.511 91.0382V91.733H240.192V91.0382H239.511ZM239.511 70.0294H240.192V69.3347H239.511V70.0294ZM237.877 70.0294H237.197V70.7242H237.877V70.0294ZM237.877 69.3625V68.6677H237.197V69.3625H237.877ZM244.412 69.3625H245.092V68.6677H244.412V69.3625ZM244.412 91.733H246.045V90.3435H244.412V91.733ZM245.365 91.0382V91.7052H246.726V91.0382H245.365ZM246.045 91.0105H237.877V92.3999H246.045V91.0105ZM238.558 91.7052V91.0382H237.197V91.7052H238.558ZM237.877 91.733H239.511V90.3435H237.877V91.733ZM240.192 91.0382V70.0294H238.83V91.0382H240.192ZM239.511 69.3347H237.877V70.7242H239.511V69.3347ZM238.558 70.0294V69.3625H237.197V70.0294H238.558ZM237.877 70.0572H244.412V68.6677H237.877V70.0572ZM243.731 69.3625V91.0382H245.092V69.3625H243.731ZM253.734 89.7044L253.109 89.9796L253.11 89.9842L253.734 89.7044ZM258.733 89.671L258.112 89.3853L258.733 89.671ZM258.733 78.433L258.109 78.714L258.112 78.7186L258.733 78.433ZM253.734 78.433L254.359 78.7081L254.36 78.7036L253.734 78.433ZM250.532 89.9711L250.105 90.5122L250.532 89.9711ZM248.735 80.4671L248.121 80.1669L248.116 80.1777L248.735 80.4671ZM250.695 77.9327L250.291 77.3733L250.284 77.3788L250.695 77.9327ZM253.342 76.5322L253.553 77.1928L253.565 77.1881L253.342 76.5322ZM259.092 76.5322L258.867 77.1884L258.885 77.1942L259.092 76.5322ZM261.738 77.9327L261.327 78.4867L261.334 78.492L261.738 77.9327ZM261.738 90.1379L261.334 89.5786L261.33 89.5821L261.738 90.1379ZM253.11 89.9842C253.392 90.6377 253.795 91.1701 254.34 91.5353C254.884 91.9008 255.521 92.0665 256.217 92.0665V90.677C255.736 90.677 255.372 90.5647 255.088 90.3745C254.804 90.1839 254.553 89.8826 254.356 89.4245L253.11 89.9842ZM256.217 92.0665C256.915 92.0665 257.555 91.8967 258.104 91.5258C258.651 91.1559 259.061 90.6175 259.353 89.9567L258.112 89.3853C257.902 89.8583 257.644 90.1703 257.352 90.3673C257.062 90.5633 256.695 90.677 256.217 90.677V92.0665ZM259.353 89.9567C259.917 88.6792 260.165 86.6839 260.165 84.0687H258.803C258.803 86.6556 258.549 88.3952 258.112 89.3853L259.353 89.9567ZM260.165 84.0687C260.165 81.4323 259.917 79.4252 259.353 78.1473L258.112 78.7186C258.549 79.7083 258.803 81.4584 258.803 84.0687H260.165ZM259.355 78.1519C259.065 77.4813 258.655 76.9336 258.109 76.5566C257.559 76.1781 256.918 76.0041 256.217 76.0041V77.3936C256.692 77.3936 257.057 77.5087 257.347 77.7082C257.638 77.9093 257.9 78.2286 258.109 78.714L259.355 78.1519ZM256.217 76.0041C255.516 76.0041 254.875 76.178 254.329 76.559C253.786 76.9386 253.385 77.4895 253.106 78.1623L254.36 78.7036C254.56 78.2204 254.813 77.9043 255.098 77.7058C255.38 77.5088 255.742 77.3936 256.217 77.3936V76.0041ZM253.109 78.1578C252.57 79.4313 252.334 81.4334 252.334 84.0687H253.696C253.696 81.4573 253.938 79.7022 254.359 78.7081L253.109 78.1578ZM252.334 84.0687C252.334 86.7039 252.57 88.706 253.109 89.9795L254.359 89.4292C253.938 88.4351 253.696 86.68 253.696 84.0687H252.334ZM256.152 91.3439C254.244 91.3439 252.52 90.7134 250.958 89.4301L250.105 90.5122C251.897 91.9856 253.92 92.7334 256.152 92.7334V91.3439ZM250.958 89.4301C249.468 88.2047 248.697 86.4623 248.697 84.102H247.336C247.336 86.8105 248.241 88.9809 250.105 90.5122L250.958 89.4301ZM248.697 84.102C248.697 82.8304 248.922 81.7199 249.353 80.7566L248.116 80.1777C247.59 81.3486 247.336 82.6614 247.336 84.102H248.697ZM249.349 80.7674C249.809 79.7853 250.399 79.0331 251.105 78.4867L250.284 77.3788C249.38 78.0774 248.662 79.0147 248.121 80.1669L249.349 80.7674ZM251.098 78.492C251.87 77.9118 252.688 77.48 253.553 77.1927L253.131 75.8716C252.122 76.2067 251.175 76.7088 250.291 77.3735L251.098 78.492ZM253.565 77.1881C254.431 76.8799 255.314 76.7267 256.217 76.7267V75.3372C255.159 75.3372 254.125 75.5174 253.117 75.8762L253.565 77.1881ZM256.217 76.7267C257.119 76.7267 258.002 76.8799 258.867 77.1881L259.315 75.8762C258.308 75.5174 257.275 75.3372 256.217 75.3372V76.7267ZM258.885 77.1942C259.77 77.4814 260.583 77.9116 261.327 78.4867L262.148 77.3788C261.281 76.7089 260.331 76.2053 259.298 75.8701L258.885 77.1942ZM261.334 78.492C262.061 79.0388 262.659 79.7896 263.117 80.7674L264.345 80.1669C263.802 79.0104 263.07 78.0717 262.141 77.3735L261.334 78.492ZM263.117 80.7674C263.569 81.7295 263.802 82.8254 263.802 84.0687H265.163C265.163 82.6442 264.895 81.339 264.345 80.1669L263.117 80.7674ZM263.802 84.0687C263.802 85.3122 263.569 86.3946 263.12 87.3314L264.343 87.9422C264.895 86.7892 265.163 85.4929 265.163 84.0687H263.802ZM263.12 87.3314C262.661 88.287 262.065 89.0293 261.334 89.5786L262.141 90.6971C263.067 90.0014 263.798 89.0765 264.343 87.9422L263.12 87.3314ZM261.33 89.5821C259.792 90.7591 258.074 91.3439 256.152 91.3439V92.7334C258.368 92.7334 260.373 92.051 262.147 90.6937L261.33 89.5821ZM274.953 91.7052V92.3999H275.633V91.7052H274.953ZM266.785 91.7052H266.104V92.3999H266.785V91.7052ZM266.785 91.0382V90.3435H266.104V91.0382H266.785ZM268.418 91.0382V91.733H269.099V91.0382H268.418ZM268.418 77.0324H269.099V76.3376H268.418V77.0324ZM266.785 77.0324H266.104V77.7271H266.785V77.0324ZM266.785 76.3654V75.6707H266.104V76.3654H266.785ZM273.319 76.3654H274V75.6707H273.319V76.3654ZM273.319 80.3338H272.638L273.988 80.4592L273.319 80.3338ZM274.365 77.666L273.826 77.2405L273.817 77.252L274.365 77.666ZM276.064 76.2987L275.842 75.6419L275.833 75.6444L276.064 76.2987ZM279.527 76.2987L279.264 76.94L279.28 76.9466L279.295 76.9523L279.527 76.2987ZM280.736 77.5659L280.107 77.8316L280.109 77.8396L280.736 77.5659ZM280.768 79.4667L281.401 79.7207L281.404 79.7131L280.768 79.4667ZM279.494 80.8006L279.226 80.162L279.218 80.1658L279.494 80.8006ZM277.86 80.9007L277.611 81.5476L277.86 80.9007ZM276.782 80.1003L276.205 80.4685L276.211 80.4771L276.216 80.4856L276.782 80.1003ZM276.325 79.0999L275.667 79.2812L275.67 79.2908L276.325 79.0999ZM274.071 80.067L274.712 80.2987L274.713 80.2955L274.071 80.067ZM273.319 91.0382H272.638V91.733H273.319V91.0382ZM274.953 91.0382H275.633V90.3435H274.953V91.0382ZM274.953 91.0105H266.785V92.3999H274.953V91.0105ZM267.465 91.7052V91.0382H266.104V91.7052H267.465ZM266.785 91.733H268.418V90.3435H266.785V91.733ZM269.099 91.0382V77.0324H267.738V91.0382H269.099ZM268.418 76.3376H266.785V77.7271H268.418V76.3376ZM267.465 77.0324V76.3654H266.104V77.0324H267.465ZM266.785 77.0601H273.319V75.6707H266.785V77.0601ZM272.638 76.3654V80.3338H274V76.3654H272.638ZM273.988 80.4592C274.17 79.445 274.487 78.6628 274.911 78.0799L273.817 77.252C273.239 78.0475 272.859 79.0438 272.649 80.2083L273.988 80.4592ZM274.902 78.0913C275.371 77.4742 275.838 77.1185 276.292 76.953L275.833 75.6444C275.068 75.9236 274.403 76.4793 273.826 77.2406L274.902 78.0913ZM276.285 76.9555C276.857 76.7539 277.381 76.66 277.86 76.66V75.2705C277.206 75.2705 276.532 75.3989 275.842 75.6419L276.285 76.9555ZM277.86 76.66C278.361 76.66 278.828 76.7543 279.264 76.94L279.788 75.6575C279.18 75.3985 278.534 75.2705 277.86 75.2705V76.66ZM279.295 76.9523C279.627 77.074 279.904 77.3319 280.107 77.8316L281.364 77.3003C281.043 76.5105 280.515 75.9236 279.757 75.6451L279.295 76.9523ZM280.109 77.8396C280.3 78.2933 280.309 78.7404 280.131 79.2204L281.404 79.7131C281.705 78.9036 281.693 78.0835 281.36 77.2922L280.109 77.8396ZM280.134 79.2127C279.962 79.6599 279.671 79.9673 279.226 80.162L279.762 81.4392C280.537 81.1003 281.094 80.5186 281.401 79.7207L280.134 79.2127ZM279.218 80.1658C278.76 80.3731 278.406 80.3731 278.108 80.2537L277.611 81.5476C278.315 81.8284 279.05 81.7617 279.77 81.4355L279.218 80.1658ZM278.108 80.2537C277.69 80.0867 277.464 79.8934 277.349 79.7149L276.216 80.4856C276.535 80.9742 277.027 81.3144 277.611 81.5476L278.108 80.2537ZM277.36 79.7321C277.166 79.4161 277.044 79.1424 276.978 78.909L275.67 79.2908C275.779 79.6799 275.963 80.0731 276.205 80.4685L277.36 79.7321ZM276.981 78.9186C276.864 78.473 276.709 78.0704 276.491 77.765C276.264 77.4477 275.915 77.1713 275.443 77.1713V78.5608C275.339 78.5608 275.323 78.4901 275.391 78.584C275.466 78.6899 275.568 78.9043 275.667 79.2812L276.981 78.9186ZM275.443 77.1713C275.131 77.1713 274.876 77.3107 274.69 77.4677C274.506 77.623 274.35 77.8263 274.215 78.0433C273.944 78.4775 273.684 79.087 273.427 79.8384L274.713 80.2955C274.957 79.5797 275.176 79.0886 275.362 78.7892C275.456 78.6394 275.523 78.5676 275.557 78.5395C275.588 78.5131 275.546 78.5608 275.443 78.5608V77.1713ZM273.428 79.8352C272.9 81.359 272.638 82.9717 272.638 84.6689H274C274 83.1203 274.238 81.665 274.712 80.2987L273.428 79.8352ZM272.638 84.6689V91.0382H274V84.6689H272.638ZM273.319 91.733H274.953V90.3435H273.319V91.733ZM274.272 91.0382V91.7052H275.633V91.0382H274.272ZM297.018 85.0357V85.7305H297.699V85.0357H297.018ZM287.151 85.0357V84.341H286.431L286.472 85.0752L287.151 85.0357ZM294.143 90.3713L293.91 89.7184L293.906 89.7202L294.143 90.3713ZM296.234 88.8707L296.63 88.3053L296.067 87.8948L295.675 88.4762L296.234 88.8707ZM296.692 89.2041L297.277 89.5592L297.597 89.0102L297.088 88.6388L296.692 89.2041ZM294.241 91.2383L294.522 91.8712L294.241 91.2383ZM287.707 91.7052L287.534 92.3774L287.549 92.381L287.707 91.7052ZM285.028 90.5047L284.667 91.0938L285.028 90.5047ZM282.969 88.0036L282.346 88.2835L282.351 88.294L282.969 88.0036ZM284.44 77.9994L284.885 78.5247L284.89 78.5208L284.44 77.9994ZM294.927 78.1662L294.443 78.6536L294.447 78.6575L294.927 78.1662ZM287.119 84.3688H286.438V85.0635H287.119V84.3688ZM292.444 84.3688V85.0635H293.125V84.3688H292.444ZM291.791 78.9999L291.135 79.1844L291.137 79.1933L291.791 78.9999ZM287.74 78.9332L288.394 79.1253V79.1227L287.74 78.9332ZM297.018 84.341H287.151V85.7305H297.018V84.341ZM286.472 85.0752C286.585 87.097 287.03 88.7271 287.897 89.8643C288.79 91.0366 290.067 91.5996 291.627 91.5996V90.2101C290.421 90.2101 289.569 89.7949 288.972 89.0109C288.347 88.1916 287.937 86.8872 287.831 84.9963L286.472 85.0752ZM291.627 91.5996C292.471 91.5996 293.393 91.3976 294.381 91.0224L293.906 89.7202C293.02 90.0565 292.265 90.2101 291.627 90.2101V91.5996ZM294.376 91.0242C295.424 90.6352 296.256 90.0621 296.795 89.2651L295.675 88.4762C295.341 88.9686 294.779 89.396 293.91 89.7184L294.376 91.0242ZM295.839 89.436L296.297 89.7695L297.088 88.6388L296.63 88.3053L295.839 89.436ZM296.106 88.8491C295.72 89.5132 295.032 90.1104 293.961 90.6054L294.522 91.8712C295.76 91.2992 296.705 90.5403 297.277 89.5592L296.106 88.8491ZM293.961 90.6054C292.885 91.1023 291.826 91.3439 290.778 91.3439V92.7334C292.039 92.7334 293.288 92.4415 294.522 91.8712L293.961 90.6054ZM290.778 91.3439C289.689 91.3439 288.718 91.2368 287.865 91.0294L287.549 92.381C288.525 92.6182 289.603 92.7334 290.778 92.7334V91.3439ZM287.88 91.0331C287.037 90.8079 286.207 90.4373 285.389 89.9156L284.667 91.0938C285.591 91.6837 286.548 92.1134 287.535 92.3773L287.88 91.0331ZM285.389 89.9156C284.648 89.4429 284.044 88.7227 283.588 87.7132L282.351 88.294C282.899 89.5077 283.665 90.4549 284.667 91.0938L285.389 89.9156ZM283.593 87.7238C283.161 86.7227 282.931 85.4783 282.931 83.9686H281.57C281.57 85.6158 281.821 87.0614 282.347 88.2835L283.593 87.7238ZM282.931 83.9686C282.931 81.4029 283.624 79.6389 284.885 78.5247L283.995 77.4742C282.336 78.9389 281.57 81.1542 281.57 83.9686H282.931ZM284.89 78.5208C286.216 77.3285 287.817 76.7267 289.732 76.7267V75.3372C287.509 75.3372 285.582 76.0471 283.99 77.4781L284.89 78.5208ZM289.732 76.7267C291.655 76.7267 293.208 77.3732 294.443 78.6536L295.413 77.6787C293.904 76.1135 291.992 75.3372 289.732 75.3372V76.7267ZM294.447 78.6575C295.656 79.8923 296.338 81.9614 296.338 85.0357H297.699C297.699 81.7963 296.987 79.2857 295.409 77.6749L294.447 78.6575ZM287.119 85.0635H292.444V83.674H287.119V85.0635ZM293.125 84.3688C293.125 82.2754 292.903 80.418 292.444 78.8064L291.137 79.1933C291.551 80.6497 291.764 82.3716 291.764 84.3688H293.125ZM292.447 78.8155C292.226 77.9955 291.917 77.3053 291.48 76.8098C291.026 76.2926 290.443 76.0041 289.765 76.0041V77.3936C290.024 77.3936 290.248 77.4887 290.468 77.7385C290.707 78.01 290.943 78.4702 291.135 79.1842L292.447 78.8155ZM289.765 76.0041C289.095 76.0041 288.514 76.2809 288.057 76.7856C287.618 77.2695 287.307 77.944 287.085 78.7436L288.394 79.1227C288.586 78.4328 288.819 77.9901 289.056 77.7293C289.274 77.4892 289.5 77.3936 289.765 77.3936V76.0041ZM287.086 78.741C286.65 80.2841 286.438 82.0406 286.438 84.002H287.799C287.799 82.1395 288.001 80.5167 288.394 79.1253L287.086 78.741ZM286.438 84.002V84.3688H287.799V84.002H286.438ZM307.56 91.7052V92.3999H308.241V91.7052H307.56ZM299.392 91.7052H298.712V92.3999H299.392V91.7052ZM299.392 91.0382V90.3435H298.712V91.0382H299.392ZM301.026 91.0382V91.733H301.707V91.0382H301.026ZM301.026 77.0324H301.707V76.3376H301.026V77.0324ZM299.392 77.0324H298.712V77.7271H299.392V77.0324ZM299.392 76.3654V75.6707H298.712V76.3654H299.392ZM305.927 76.3654H306.607V75.6707H305.927V76.3654ZM305.927 80.3338H305.246L306.596 80.4592L305.927 80.3338ZM306.972 77.666L306.433 77.2405L306.425 77.252L306.972 77.666ZM308.671 76.2987L308.449 75.6419L308.442 75.6444L308.671 76.2987ZM312.134 76.2987L311.872 76.94L311.888 76.9466L311.903 76.9523L312.134 76.2987ZM313.343 77.5659L312.714 77.8316L312.717 77.8396L313.343 77.5659ZM313.376 79.4667L314.009 79.7207L314.012 79.7131L313.376 79.4667ZM312.102 80.8006L311.833 80.162L311.825 80.1658L312.102 80.8006ZM310.468 80.9007L310.22 81.5476L310.468 80.9007ZM309.39 80.1003L308.813 80.4685L308.818 80.4771L308.824 80.4856L309.39 80.1003ZM308.932 79.0999L308.275 79.2812L308.278 79.2908L308.932 79.0999ZM306.678 80.067L307.319 80.2987L307.321 80.2955L306.678 80.067ZM305.927 91.0382H305.246V91.733H305.927V91.0382ZM307.56 91.0382H308.241V90.3435H307.56V91.0382ZM307.56 91.0105H299.392V92.3999H307.56V91.0105ZM300.073 91.7052V91.0382H298.712V91.7052H300.073ZM299.392 91.733H301.026V90.3435H299.392V91.733ZM301.707 91.0382V77.0324H300.345V91.0382H301.707ZM301.026 76.3376H299.392V77.7271H301.026V76.3376ZM300.073 77.0324V76.3654H298.712V77.0324H300.073ZM299.392 77.0601H305.927V75.6707H299.392V77.0601ZM305.246 76.3654V80.3338H306.607V76.3654H305.246ZM306.596 80.4592C306.779 79.445 307.095 78.6628 307.518 78.0799L306.425 77.252C305.846 78.0475 305.467 79.0438 305.257 80.2083L306.596 80.4592ZM307.51 78.0913C307.978 77.4742 308.445 77.1185 308.9 76.953L308.442 75.6444C307.676 75.9236 307.012 76.4793 306.433 77.2406L307.51 78.0913ZM308.893 76.9555C309.466 76.7539 309.989 76.66 310.468 76.66V75.2705C309.813 75.2705 309.139 75.3989 308.449 75.6419L308.893 76.9555ZM310.468 76.66C310.969 76.66 311.436 76.7543 311.872 76.94L312.396 75.6575C311.787 75.3985 311.142 75.2705 310.468 75.2705V76.66ZM311.903 76.9523C312.235 77.074 312.511 77.3319 312.714 77.8316L313.972 77.3003C313.652 76.5105 313.123 75.9236 312.364 75.6451L311.903 76.9523ZM312.717 77.8396C312.907 78.2933 312.917 78.7404 312.739 79.2204L314.012 79.7131C314.312 78.9036 314.3 78.0835 313.968 77.2922L312.717 77.8396ZM312.741 79.2127C312.57 79.6599 312.279 79.9673 311.833 80.162L312.37 81.4392C313.144 81.1003 313.702 80.5186 314.009 79.7207L312.741 79.2127ZM311.825 80.1658C311.368 80.3731 311.015 80.3731 310.716 80.2537L310.22 81.5476C310.923 81.8284 311.658 81.7617 312.378 81.4355L311.825 80.1658ZM310.716 80.2537C310.298 80.0867 310.072 79.8934 309.956 79.7149L308.824 80.4856C309.142 80.9742 309.636 81.3144 310.22 81.5476L310.716 80.2537ZM309.967 79.7321C309.774 79.4161 309.653 79.1424 309.587 78.909L308.278 79.2908C308.387 79.6799 308.57 80.0731 308.813 80.4685L309.967 79.7321ZM309.589 78.9186C309.472 78.473 309.316 78.0704 309.099 77.765C308.871 77.4477 308.523 77.1713 308.05 77.1713V78.5608C307.947 78.5608 307.932 78.4901 307.999 78.584C308.073 78.6899 308.176 78.9043 308.275 79.2812L309.589 78.9186ZM308.05 77.1713C307.739 77.1713 307.485 77.3107 307.299 77.4677C307.114 77.623 306.957 77.8263 306.822 78.0433C306.552 78.4775 306.292 79.087 306.036 79.8384L307.321 80.2955C307.564 79.5797 307.784 79.0886 307.971 78.7892C308.064 78.6394 308.131 78.5676 308.165 78.5395C308.196 78.5131 308.154 78.5608 308.05 78.5608V77.1713ZM306.036 79.8352C305.507 81.359 305.246 82.9717 305.246 84.6689H306.607C306.607 83.1203 306.846 81.665 307.319 80.2987L306.036 79.8352ZM305.246 84.6689V91.0382H306.607V84.6689H305.246ZM305.927 91.733H307.56V90.3435H305.927V91.733ZM306.88 91.0382V91.7052H308.241V91.0382H306.88ZM324.758 87.8036L324.415 88.4038L324.427 88.4109L324.758 87.8036ZM321.915 86.6697L321.748 87.3429L321.915 86.6697ZM318.615 85.6693L318.392 86.3257L318.396 86.3271L318.615 85.6693ZM315.936 83.8686L315.422 84.3231L315.429 84.331L315.936 83.8686ZM315.087 80.6339L314.41 80.5647L315.087 80.6339ZM317.08 77.3325L316.692 76.7624L316.686 76.7657L317.08 77.3325ZM325.869 76.899L326.183 76.2826L325.869 76.899ZM327.698 79.2333L327.024 79.3272L327.026 79.3351L327.698 79.2333ZM327.404 80.9007L326.812 80.5588L326.807 80.569L326.801 80.5793L327.404 80.9007ZM326.065 81.701L326.041 81.0067H326.04L326.065 81.701ZM324.529 81.2008L324.077 81.7202L324.091 81.7323L324.529 81.2008ZM324.496 78.7331L324.993 79.2083L325 79.2006L325.007 79.1927L324.496 78.7331ZM323.908 76.999L323.724 77.6678L323.737 77.6712L323.749 77.6742L323.908 76.999ZM319.204 77.3325L318.813 76.7643L319.204 77.3325ZM319.4 80.5005L319.047 81.0946L319.055 81.0993L319.4 80.5005ZM322.079 81.6009L321.902 82.2716L321.914 82.275L322.079 81.6009ZM325.182 82.5347L324.963 83.1926L324.98 83.1977L325.182 82.5347ZM327.829 84.1687L327.34 84.6527L327.348 84.66L327.829 84.1687ZM327.339 90.7381L327.776 91.271L327.783 91.2656L327.339 90.7381ZM317.243 91.1049L316.944 91.7284L316.948 91.7303L317.243 91.1049ZM315.054 88.5372L315.729 88.4492L315.728 88.4354L315.054 88.5372ZM316.688 86.0695L316.663 85.3752L316.688 86.0695ZM318.191 86.5697L317.739 87.0891L317.752 87.1012L318.191 86.5697ZM318.256 89.0708L318.753 89.546L318.76 89.5383L318.767 89.5304L318.256 89.0708ZM319.269 91.0382L319.084 91.707L319.101 91.7115L319.269 91.0382ZM322.536 92.1332C323.71 92.1332 324.696 91.9731 325.413 91.5725C325.78 91.3665 326.089 91.0897 326.304 90.7302C326.518 90.3694 326.615 89.9636 326.615 89.5376H325.253C325.253 89.7452 325.208 89.8939 325.14 90.0082C325.071 90.124 324.955 90.2432 324.758 90.3539C324.341 90.5869 323.629 90.7437 322.536 90.7437V92.1332ZM326.615 89.5376C326.615 88.4997 326.017 87.7226 325.089 87.1962L324.427 88.4109C325.068 88.7738 325.253 89.1527 325.253 89.5376H326.615ZM325.101 87.2034C324.25 86.6968 323.241 86.2975 322.084 85.9965L321.748 87.3429C322.812 87.62 323.697 87.9766 324.415 88.4037L325.101 87.2034ZM322.084 85.9965C320.99 85.712 319.907 85.3836 318.835 85.0115L318.396 86.3271C319.503 86.7109 320.619 87.0495 321.748 87.3429L322.084 85.9965ZM318.839 85.0129C317.876 84.672 317.083 84.1362 316.444 83.4062L315.429 84.331C316.229 85.2461 317.221 85.9108 318.392 86.3257L318.839 85.0129ZM316.451 83.4141C315.905 82.7682 315.648 81.8943 315.765 80.7031L314.41 80.5647C314.266 82.0413 314.575 83.3238 315.422 84.3231L316.451 83.4141ZM315.765 80.7031C315.874 79.594 316.416 78.6654 317.475 77.8993L316.686 76.7657C315.35 77.7336 314.563 79.006 314.41 80.5647L315.765 80.7031ZM317.469 77.9026C318.554 77.1309 319.905 76.7267 321.556 76.7267V75.3372C319.68 75.3372 318.045 75.7999 316.692 76.7624L317.469 77.9026ZM321.556 76.7267C323.279 76.7267 324.597 77.0069 325.555 77.5153L326.183 76.2826C324.963 75.635 323.406 75.3372 321.556 75.3372V76.7267ZM325.555 77.5153C326.507 78.0206 326.932 78.6322 327.024 79.3272L328.373 79.1394C328.205 77.878 327.41 76.9334 326.183 76.2826L325.555 77.5153ZM327.026 79.3351C327.091 79.7878 327.018 80.1867 326.812 80.5588L327.998 81.2425C328.357 80.5919 328.481 79.8792 328.372 79.1314L327.026 79.3351ZM326.801 80.5793C326.669 80.8387 326.463 80.9918 326.041 81.0067L326.089 82.3953C326.93 82.3657 327.618 81.9853 328.009 81.222L326.801 80.5793ZM326.04 81.0067C325.576 81.0236 325.236 80.8997 324.967 80.6693L324.091 81.7323C324.65 82.2133 325.334 82.4228 326.089 82.3953L326.04 81.0067ZM324.981 80.6815C324.718 80.4425 324.643 80.225 324.654 80L323.294 79.9339C323.262 80.6426 323.557 81.2476 324.077 81.72L324.981 80.6815ZM324.654 80C324.668 79.7056 324.773 79.4492 324.993 79.2083L324.001 78.2579C323.568 78.7283 323.324 79.2946 323.294 79.9339L324.654 80ZM325.007 79.1927C325.189 78.9819 325.346 78.7709 325.459 78.5619C325.569 78.3599 325.667 78.1092 325.667 77.8327H324.306C324.306 77.7785 324.322 77.7891 324.269 77.8872C324.22 77.9783 324.132 78.1063 323.986 78.2734L325.007 79.1927ZM325.667 77.8327C325.667 77.3783 325.437 77.0254 325.128 76.7871C324.841 76.5652 324.468 76.4227 324.069 76.3239L323.749 77.6742C324.068 77.7532 324.234 77.8385 324.306 77.8945C324.337 77.9188 324.336 77.9254 324.325 77.9072C324.313 77.8848 324.306 77.8562 324.306 77.8327H325.667ZM324.093 76.3303C323.322 76.1088 322.439 76.0041 321.458 76.0041V77.3936C322.35 77.3936 323.102 77.4891 323.724 77.6678L324.093 76.3303ZM321.458 76.0041C320.441 76.0041 319.543 76.2397 318.813 76.7643L319.596 77.9006C320.041 77.5805 320.645 77.3936 321.458 77.3936V76.0041ZM318.813 76.7643C318.08 77.2902 317.641 78.0086 317.641 78.8998H319.002C319.002 78.5461 319.152 78.2195 319.596 77.9006L318.813 76.7643ZM317.641 78.8998C317.641 79.8526 318.211 80.5772 319.047 81.0946L319.752 79.9063C319.152 79.5345 319.002 79.192 319.002 78.8998H317.641ZM319.055 81.0993C319.86 81.5823 320.811 81.9703 321.902 82.2715L322.257 80.9304C321.255 80.6536 320.422 80.3079 319.745 79.9016L319.055 81.0993ZM321.914 82.275C322.942 82.537 323.957 82.8429 324.963 83.1923L325.402 81.877C324.36 81.5151 323.308 81.1984 322.245 80.9269L321.914 82.275ZM324.98 83.1977C325.924 83.499 326.706 83.9849 327.342 84.6525L328.318 83.6849C327.514 82.8408 326.533 82.2373 325.385 81.8716L324.98 83.1977ZM327.348 84.66C327.95 85.2743 328.259 86.0482 328.259 87.0366H329.62C329.62 85.7128 329.19 84.5748 328.311 83.6774L327.348 84.66ZM328.259 87.0366C328.259 88.3837 327.802 89.419 326.896 90.2107L327.783 91.2656C329.012 90.1898 329.62 88.7574 329.62 87.0366H328.259ZM326.902 90.2053C326.009 90.9682 324.583 91.4106 322.503 91.4106V92.8001C324.736 92.8001 326.534 92.331 327.776 91.271L326.902 90.2053ZM322.503 91.4106C320.408 91.4106 318.767 91.0854 317.54 90.4795L316.948 91.7303C318.421 92.4584 320.287 92.8001 322.503 92.8001V91.4106ZM317.544 90.4815C316.324 89.8692 315.821 89.1719 315.729 88.4492L314.379 88.6252C314.551 89.9923 315.506 91.0069 316.944 91.7284L317.544 90.4815ZM315.728 88.4354C315.663 87.9827 315.735 87.5837 315.942 87.2116L314.756 86.528C314.395 87.1786 314.273 87.8912 314.382 88.6391L315.728 88.4354ZM315.942 87.2116C316.1 86.9257 316.322 86.778 316.712 86.7638L316.663 85.3752C315.834 85.4055 315.165 85.7913 314.756 86.528L315.942 87.2116ZM316.712 86.7638C317.178 86.7469 317.499 86.8712 317.739 87.089L318.643 86.0505C318.1 85.5568 317.418 85.3477 316.663 85.3752L316.712 86.7638ZM317.752 87.1012C318.037 87.3459 318.109 87.5605 318.1 87.7705L319.459 87.8366C319.494 87.1129 319.172 86.505 318.629 86.0382L317.752 87.1012ZM318.1 87.7705C318.086 88.0669 317.98 88.3417 317.746 88.6111L318.767 89.5304C319.187 89.0439 319.43 88.474 319.459 87.8366L318.1 87.7705ZM317.761 88.5956C317.575 88.7962 317.416 89.0006 317.299 89.2071C317.186 89.4083 317.085 89.6585 317.085 89.9378H318.447C318.447 89.9948 318.429 89.9893 318.478 89.9015C318.526 89.819 318.61 89.701 318.753 89.546L317.761 88.5956ZM317.085 89.9378C317.085 90.4676 317.396 90.855 317.746 91.1109C318.089 91.3627 318.551 91.5533 319.084 91.7069L319.454 90.3696C318.984 90.2342 318.696 90.0969 318.539 89.9818C318.388 89.871 318.447 89.8526 318.447 89.9378H317.085ZM319.101 91.7115C320.185 91.9938 321.33 92.1332 322.536 92.1332V90.7437C321.433 90.7437 320.402 90.6163 319.438 90.3651L319.101 91.7115Z" fill="#2F7AB0"/>
<path d="M74.3161 91.1494C83.8453 91.1494 88.6099 85.6378 88.6099 74.6147H90.5157V93.0947H45.7285V91.1494H50.4931V40.5726H45.7285V38.6273H89.5628V55.1621H87.657C87.657 49.3912 86.5135 45.533 84.2265 43.5877C82.003 41.5776 78.3819 40.5726 73.3632 40.5726H64.7869V63.9157H68.5986C73.1726 63.9157 76.0631 63.3322 77.2702 62.165C78.4772 60.9979 79.0807 58.6635 79.0807 55.1621H80.9865V74.6147H79.0807C79.0807 70.9836 78.4772 68.6168 77.2702 67.5145C76.0631 66.4122 73.1726 65.861 68.5986 65.861H64.7869V91.1494H74.3161Z" fill="#2F7AB0"/>
<path d="M88.6099 74.6147V73.92H87.9292V74.6147H88.6099ZM90.5157 74.6147H91.1964V73.92H90.5157V74.6147ZM90.5157 93.0947V93.7895H91.1964V93.0947H90.5157ZM45.7285 93.0947H45.0479V93.7895H45.7285V93.0947ZM45.7285 91.1495V90.4547H45.0479V91.1495H45.7285ZM50.4931 91.1495V91.8442H51.1738V91.1495H50.4931ZM50.4931 40.5726H51.1738V39.8779H50.4931V40.5726ZM45.7285 40.5726H45.0479V41.2674H45.7285V40.5726ZM45.7285 38.6274V37.9326H45.0479V38.6274H45.7285ZM89.5628 38.6274H90.2435V37.9326H89.5628V38.6274ZM89.5628 55.1621V55.8568H90.2435V55.1621H89.5628ZM87.657 55.1621H86.9763V55.8568H87.657V55.1621ZM84.2265 43.5878L83.7752 44.1079L83.7828 44.1148L83.7907 44.1215L84.2265 43.5878ZM64.7869 40.5726V39.8779H64.1062V40.5726H64.7869ZM64.7869 63.9158H64.1062V64.6105H64.7869V63.9158ZM79.0807 55.1621V54.4674H78.4V55.1621H79.0807ZM80.9865 55.1621H81.6672V54.4674H80.9865V55.1621ZM80.9865 74.6147V75.3095H81.6672V74.6147H80.9865ZM79.0807 74.6147H78.4V75.3095H79.0807V74.6147ZM77.2702 67.5145L77.724 66.9968L77.2702 67.5145ZM64.7869 65.861V65.1663H64.1062V65.861H64.7869ZM64.7869 91.1495H64.1062V91.8442H64.7869V91.1495ZM74.3161 91.8442C79.2092 91.8442 82.9969 90.4251 85.5468 87.4754C88.0824 84.5424 89.2906 80.2135 89.2906 74.6147H87.9292C87.9292 80.0391 86.7551 83.9777 84.5261 86.5561C82.3114 89.1181 78.9522 90.4547 74.3161 90.4547V91.8442ZM88.6099 75.3095H90.5157V73.92H88.6099V75.3095ZM89.8351 74.6147V93.0947H91.1964V74.6147H89.8351ZM90.5157 92.4H45.7285V93.7895H90.5157V92.4ZM46.4092 93.0947V91.1495H45.0479V93.0947H46.4092ZM45.7285 91.8442H50.4931V90.4547H45.7285V91.8442ZM51.1738 91.1495V40.5726H49.8125V91.1495H51.1738ZM50.4931 39.8779H45.7285V41.2674H50.4931V39.8779ZM46.4092 40.5726V38.6274H45.0479V40.5726H46.4092ZM45.7285 39.3221H89.5628V37.9326H45.7285V39.3221ZM88.8822 38.6274V55.1621H90.2435V38.6274H88.8822ZM89.5628 54.4674H87.657V55.8568H89.5628V54.4674ZM88.3376 55.1621C88.3376 49.3547 87.1981 45.211 84.6622 43.0541L83.7907 44.1215C85.829 45.8551 86.9763 49.4276 86.9763 55.1621H88.3376ZM84.6777 43.0677C82.2685 40.8897 78.4422 39.8779 73.3632 39.8779V41.2674C78.3215 41.2674 81.7374 42.2657 83.7752 44.1079L84.6777 43.0677ZM73.3632 39.8779H64.7869V41.2674H73.3632V39.8779ZM64.1062 40.5726V63.9158H65.4676V40.5726H64.1062ZM64.7869 64.6105H68.5986V63.221H64.7869V64.6105ZM68.5986 64.6105C70.9085 64.6105 72.8234 64.4636 74.329 64.1596C75.8157 63.8595 76.9939 63.389 77.7383 62.6694L76.802 61.6607C76.3393 62.1082 75.4687 62.5131 74.0649 62.7966C72.6801 63.0761 70.8627 63.221 68.5986 63.221V64.6105ZM77.7383 62.6694C78.4647 61.9669 78.9651 60.9581 79.2863 59.7162C79.6079 58.4717 79.7614 56.9484 79.7614 55.1621H78.4C78.4 56.8773 78.2517 58.2719 77.97 59.3616C77.6875 60.454 77.2827 61.196 76.802 61.6607L77.7383 62.6694ZM79.0807 55.8568H80.9865V54.4674H79.0807V55.8568ZM80.3059 55.1621V74.6147H81.6672V55.1621H80.3059ZM80.9865 73.92H79.0807V75.3095H80.9865V73.92ZM79.7614 74.6147C79.7614 72.7658 79.6083 71.2022 79.2868 69.9414C78.9665 68.6854 78.4646 67.6731 77.724 66.9968L76.8163 68.0322C77.2828 68.4582 77.686 69.1805 77.9693 70.2912C78.2514 71.3971 78.4 72.8326 78.4 74.6147H79.7614ZM77.724 66.9968C76.9792 66.3166 75.804 65.8741 74.322 65.5915C72.8195 65.305 70.9072 65.1663 68.5986 65.1663V66.5558C70.8639 66.5558 72.684 66.6926 74.072 66.9573C75.4804 67.2259 76.354 67.6101 76.8163 68.0322L77.724 66.9968ZM68.5986 65.1663H64.7869V66.5558H68.5986V65.1663ZM64.1062 65.861V91.1495H65.4676V65.861H64.1062ZM64.7869 91.8442H74.3161V90.4547H64.7869V91.8442Z" fill="#2F7AB0"/>
<path d="M41.0708 93.7486H19.1536V91.8034H22.9653V71.2808L5.90806 41.2265H0.952881V39.2812H27.6346V41.2265H22.9653L36.3062 65.7368L48.6942 41.2265H41.0708V39.2812H57.7469V41.2265H51.0765L37.2591 68.6547V91.8034H41.0708V93.7486Z" fill="#2F7AB0"/>
<path d="M41.0708 93.7486V94.4434H41.7514V93.7486H41.0708ZM19.1536 93.7486H18.473V94.4434H19.1536V93.7486ZM19.1536 91.8034V91.1087H18.473V91.8034H19.1536ZM22.9653 91.8034V92.4981H23.646V91.8034H22.9653ZM22.9653 71.2809H23.646V71.0941L23.5544 70.9327L22.9653 71.2809ZM5.90806 41.2265L6.49703 40.8783L6.30037 40.5318H5.90806V41.2265ZM0.952874 41.2265H0.272217V41.9213H0.952874V41.2265ZM0.952874 39.2813V38.5865H0.272217V39.2813H0.952874ZM27.6346 39.2813H28.3153V38.5865H27.6346V39.2813ZM27.6346 41.2265V41.9213H28.3153V41.2265H27.6346ZM22.9653 41.2265V40.5318H21.8085L22.3703 41.5639L22.9653 41.2265ZM36.3062 65.7369L35.7112 66.0742L36.3284 67.2082L36.9112 66.0553L36.3062 65.7369ZM48.6941 41.2265L49.2991 41.545L49.8112 40.5318H48.6941V41.2265ZM41.0708 41.2265H40.3901V41.9213H41.0708V41.2265ZM41.0708 39.2813V38.5865H40.3901V39.2813H41.0708ZM57.7469 39.2813H58.4275V38.5865H57.7469V39.2813ZM57.7469 41.2265V41.9213H58.4275V41.2265H57.7469ZM51.0764 41.2265V40.5318H50.6611L50.4711 40.9088L51.0764 41.2265ZM37.2591 68.6548L36.6537 68.337L36.5785 68.4866V68.6548H37.2591ZM37.2591 91.8034H36.5785V92.4981H37.2591V91.8034ZM41.0708 91.8034H41.7514V91.1087H41.0708V91.8034ZM41.0708 93.0539H19.1536V94.4434H41.0708V93.0539ZM19.8343 93.7486V91.8034H18.473V93.7486H19.8343ZM19.1536 92.4981H22.9653V91.1087H19.1536V92.4981ZM23.646 91.8034V71.2809H22.2847V91.8034H23.646ZM23.5544 70.9327L6.49703 40.8783L5.31908 41.5748L22.3764 71.6291L23.5544 70.9327ZM5.90806 40.5318H0.952874V41.9213H5.90806V40.5318ZM1.63353 41.2265V39.2813H0.272217V41.2265H1.63353ZM0.952874 39.976H27.6346V38.5865H0.952874V39.976ZM26.954 39.2813V41.2265H28.3153V39.2813H26.954ZM27.6346 40.5318H22.9653V41.9213H27.6346V40.5318ZM22.3703 41.5639L35.7112 66.0742L36.9012 65.3995L23.5603 40.8892L22.3703 41.5639ZM36.9112 66.0553L49.2991 41.545L48.0892 40.9079L35.7012 65.4183L36.9112 66.0553ZM48.6941 40.5318H41.0708V41.9213H48.6941V40.5318ZM41.7514 41.2265V39.2813H40.3901V41.2265H41.7514ZM41.0708 39.976H57.7469V38.5865H41.0708V39.976ZM57.0662 39.2813V41.2265H58.4275V39.2813H57.0662ZM57.7469 40.5318H51.0764V41.9213H57.7469V40.5318ZM50.4711 40.9088L36.6537 68.337L37.8645 68.9724L51.6818 41.5442L50.4711 40.9088ZM36.5785 68.6548V91.8034H37.9398V68.6548H36.5785ZM37.2591 92.4981H41.0708V91.1087H37.2591V92.4981ZM40.3901 91.8034V93.7486H41.7514V91.8034H40.3901Z" fill="#2F7AB0"/>
</svg>
