
<svg width="144" height="90" viewBox="0 0 144 90" fill="none" xmlns="http://www.w3.org/2000/svg">
<path d="M138.973 58.0094V56.92H137.905V58.0094H138.973ZM141.962 58.0094H143.029V56.92H141.962V58.0094ZM141.962 86.9894V88.0789H143.029V86.9894H141.962ZM71.7191 86.9894H70.6516V88.0789H71.7191V86.9894ZM71.7191 83.9389V82.8494H70.6516V83.9389H71.7191ZM79.1917 83.9389V85.0284H80.2592V83.9389H79.1917ZM79.1917 4.62523H80.2592V3.53576H79.1917V4.62523ZM71.7191 4.62523H70.6516V5.71471H71.7191V4.62523ZM71.7191 1.5747V0.485229H70.6516V1.5747H71.7191ZM140.467 1.5747H141.535V0.485229H140.467V1.5747ZM140.467 27.5042V28.5937H141.535V27.5042H140.467ZM137.478 27.5042H136.411V28.5937H137.478V27.5042ZM132.098 9.35355L131.39 10.1691L131.402 10.18L131.414 10.1905L132.098 9.35355ZM101.61 4.62523V3.53576H100.542V4.62523H101.61ZM101.61 41.2315H100.542V42.321H101.61V41.2315ZM124.027 27.5042V26.4147H122.96V27.5042H124.027ZM127.017 27.5042H128.084V26.4147H127.017V27.5042ZM127.017 58.0094V59.0989H128.084V58.0094H127.017ZM124.027 58.0094H122.96V59.0989H124.027V58.0094ZM121.188 46.875L121.9 46.0631L121.188 46.875ZM101.61 44.2821V43.1926H100.542V44.2821H101.61ZM101.61 83.9389H100.542V85.0284H101.61V83.9389ZM116.555 85.0284C124.229 85.0284 130.17 82.803 134.169 78.1773C138.145 73.5778 140.04 66.7893 140.04 58.0094H137.905C137.905 66.5158 136.064 72.6923 132.568 76.7358C129.094 80.7533 123.826 82.8494 116.555 82.8494V85.0284ZM138.973 59.0989H141.962V56.92H138.973V59.0989ZM140.894 58.0094V86.9894H143.029V58.0094H140.894ZM141.962 85.9H71.7191V88.0789H141.962V85.9ZM72.7866 86.9894V83.9389H70.6516V86.9894H72.7866ZM71.7191 85.0284H79.1917V82.8494H71.7191V85.0284ZM80.2592 83.9389V4.62523H78.1242V83.9389H80.2592ZM79.1917 3.53576H71.7191V5.71471H79.1917V3.53576ZM72.7866 4.62523V1.5747H70.6516V4.62523H72.7866ZM71.7191 2.66418H140.467V0.485229H71.7191V2.66418ZM139.4 1.5747V27.5042H141.535V1.5747H139.4ZM140.467 26.4147H137.478V28.5937H140.467V26.4147ZM138.546 27.5042C138.546 18.3971 136.758 11.899 132.781 8.51662L131.414 10.1905C134.611 12.9092 136.411 18.5114 136.411 27.5042H138.546ZM132.806 8.53797C129.027 5.12247 123.026 3.53576 115.06 3.53576V5.71471C122.837 5.71471 128.194 7.28028 131.39 10.1691L132.806 8.53797ZM115.06 3.53576H101.61V5.71471H115.06V3.53576ZM100.542 4.62523V41.2315H102.677V4.62523H100.542ZM101.61 42.321H107.588V40.1421H101.61V42.321ZM107.588 42.321C111.21 42.321 114.214 42.0907 116.575 41.614C118.907 41.1433 120.755 40.4055 121.922 39.277L120.454 37.6951C119.728 38.397 118.363 39.0319 116.161 39.4764C113.989 39.9148 111.139 40.1421 107.588 40.1421V42.321ZM121.922 39.277C123.061 38.1754 123.846 36.5934 124.35 34.6459C124.854 32.6942 125.095 30.3054 125.095 27.5042H122.96C122.96 30.1939 122.727 32.3809 122.285 34.0898C121.842 35.8029 121.208 36.9665 120.454 37.6951L121.922 39.277ZM124.027 28.5937H127.017V26.4147H124.027V28.5937ZM125.949 27.5042V58.0094H128.084V27.5042H125.949ZM127.017 56.92H124.027V59.0989H127.017V56.92ZM125.095 58.0094C125.095 55.1099 124.855 52.658 124.351 50.6808C123.848 48.7112 123.061 47.1236 121.9 46.0631L120.476 47.6869C121.208 48.355 121.84 49.4876 122.284 51.2294C122.727 52.9637 122.96 55.2147 122.96 58.0094H125.095ZM121.9 46.0631C120.732 44.9966 118.888 44.3026 116.564 43.8594C114.208 43.4101 111.208 43.1926 107.588 43.1926V45.3716C111.141 45.3716 113.995 45.5862 116.172 46.0013C118.381 46.4225 119.751 47.0249 120.476 47.6869L121.9 46.0631ZM107.588 43.1926H101.61V45.3716H107.588V43.1926ZM100.542 44.2821V83.9389H102.677V44.2821H100.542ZM101.61 85.0284H116.555V82.8494H101.61V85.0284Z" fill="#2F7AB0"/>
<path d="M64.414 88.0149V89.1044H65.4816V88.0149H64.414ZM30.04 88.0149H28.9724V89.1044H30.04V88.0149ZM30.04 84.9644V83.875H28.9724V84.9644H30.04ZM36.0181 84.9644V86.0539H37.0856V84.9644H36.0181ZM36.0181 52.7814H37.0856V52.4885L36.9419 52.2353L36.0181 52.7814ZM9.26605 5.65075L10.1898 5.1047L9.88135 4.56127H9.26605V5.65075ZM1.49452 5.65075H0.427002V6.74022H1.49452V5.65075ZM1.49452 2.60022V1.51074H0.427002V2.60022H1.49452ZM43.3412 2.60022H44.4087V1.51074H43.3412V2.60022ZM43.3412 5.65075V6.74022H44.4087V5.65075H43.3412ZM36.0181 5.65075V4.56127H34.2037L35.0848 6.17979L36.0181 5.65075ZM56.9414 44.0874L56.0082 44.6164L56.9762 46.3947L57.8902 44.5868L56.9414 44.0874ZM76.3702 5.65075L77.3191 6.15016L78.1223 4.56127H76.3702V5.65075ZM64.414 5.65075H63.3465V6.74022H64.414V5.65075ZM64.414 2.60022V1.51074H63.3465V2.60022H64.414ZM90.5682 2.60022H91.6358V1.51074H90.5682V2.60022ZM90.5682 5.65075V6.74022H91.6358V5.65075H90.5682ZM80.1066 5.65075V4.56127H79.4552L79.1571 5.15242L80.1066 5.65075ZM58.4359 48.6632L57.4865 48.1648L57.3684 48.3995V48.6632H58.4359ZM58.4359 84.9644H57.3684V86.0539H58.4359V84.9644ZM64.414 84.9644H65.4816V83.875H64.414V84.9644ZM64.414 86.9255H30.04V89.1044H64.414V86.9255ZM31.1075 88.0149V84.9644H28.9724V88.0149H31.1075ZM30.04 86.0539H36.0181V83.875H30.04V86.0539ZM37.0856 84.9644V52.7814H34.9505V84.9644H37.0856ZM36.9419 52.2353L10.1898 5.1047L8.34233 6.19679L35.0944 53.3274L36.9419 52.2353ZM9.26605 4.56127H1.49452V6.74022H9.26605V4.56127ZM2.56204 5.65075V2.60022H0.427002V5.65075H2.56204ZM1.49452 3.68969H43.3412V1.51074H1.49452V3.68969ZM42.2737 2.60022V5.65075H44.4087V2.60022H42.2737ZM43.3412 4.56127H36.0181V6.74022H43.3412V4.56127ZM35.0848 6.17979L56.0082 44.6164L57.8746 43.5583L36.9513 5.12169L35.0848 6.17979ZM57.8902 44.5868L77.3191 6.15016L75.4214 5.15111L55.9926 43.5877L57.8902 44.5868ZM76.3702 4.56127H64.414V6.74022H76.3702V4.56127ZM65.4816 5.65075V2.60022H63.3465V5.65075H65.4816ZM64.414 3.68969H90.5682V1.51074H64.414V3.68969ZM89.5007 2.60022V5.65075H91.6358V2.60022H89.5007ZM90.5682 4.56127H80.1066V6.74022H90.5682V4.56127ZM79.1571 5.15242L57.4865 48.1648L59.3854 49.1613L81.056 6.14885L79.1571 5.15242ZM57.3684 48.6632V84.9644H59.5035V48.6632H57.3684ZM58.4359 86.0539H64.414V83.875H58.4359V86.0539ZM63.3465 84.9644V88.0149H65.4816V84.9644H63.3465Z" fill="#2F7AB0"/>
</svg>
